<svg fill="none" xmlns="http://www.w3.org/2000/svg" width="612" height="170" viewBox="0 0 612 170"><path fill-rule="evenodd" clip-rule="evenodd" d="M153.817 141L89.9084 30L26 141H153.817ZM218.275 135.947L271.684 35.0455H248.583L211.74 108.324L174.898 35.0455H151.796L205.205 135.947H218.275ZM582.255 35.0455V135.947H563.13V35.0455H582.255ZM475.798 98.2863C475.798 90.4229 477.441 83.5065 480.726 77.5377C484.014 71.5689 488.596 66.9737 494.474 63.7525C500.35 60.5312 507.224 58.9206 515.094 58.9206C522.066 58.9206 528.341 60.4364 533.92 63.4682C539.499 66.5 543.929 71.0004 547.217 76.9692C550.504 82.938 552.197 90.2333 552.297 98.855V103.26H495.968C496.366 109.514 498.208 114.44 501.496 118.041C504.883 121.546 509.415 123.299 515.094 123.299C518.678 123.299 521.966 122.351 524.954 120.456C527.944 118.562 530.184 116.003 531.678 112.782L551.252 114.203C548.86 121.309 544.378 126.994 537.804 131.257C531.229 135.521 523.66 137.652 515.094 137.652C507.224 137.652 500.35 136.042 494.474 132.82C488.596 129.599 484.014 125.004 480.726 119.035C477.441 113.066 475.798 106.15 475.798 98.2863ZM532.576 91.1806C531.877 85.0223 529.936 80.5221 526.747 77.6798C523.56 74.7428 519.674 73.2742 515.094 73.2742C509.814 73.2742 505.531 74.8374 502.244 77.964C498.956 81.0905 496.915 85.4962 496.118 91.1806H532.576ZM443.531 77.6798C446.718 80.2377 448.71 83.7908 449.508 88.3384L469.231 87.3437C468.535 81.5642 466.491 76.5429 463.106 72.2795C459.718 68.016 455.336 64.7473 449.956 62.4735C444.677 60.1049 438.85 58.9206 432.475 58.9206C424.605 58.9206 417.733 60.5312 411.855 63.7525C405.977 66.9737 401.397 71.5689 398.109 77.5377C394.822 83.5065 393.178 90.4229 393.178 98.2863C393.178 106.15 394.822 113.066 398.109 119.035C401.397 125.004 405.977 129.599 411.855 132.82C417.733 136.042 424.605 137.652 432.475 137.652C439.049 137.652 445.025 136.468 450.405 134.099C455.783 131.636 460.167 128.178 463.552 123.725C466.94 119.272 468.981 114.061 469.678 108.092L449.807 107.24C449.11 112.261 447.167 116.146 443.98 118.893C440.791 121.546 436.957 122.872 432.475 122.872C426.3 122.872 421.518 120.741 418.13 116.477C414.745 112.214 413.05 106.15 413.05 98.2863C413.05 90.4229 414.745 84.3593 418.13 80.0958C421.518 75.8323 426.3 73.7005 432.475 73.7005C436.758 73.7005 440.443 75.0269 443.531 77.6798ZM346.51 60.6226H364.308L364.821 75.1194C366.085 71.0158 367.842 67.8292 370.092 65.5595C373.354 62.2681 377.902 60.6226 383.735 60.6226H391.002V76.1389H383.588C379.435 76.1389 376.024 76.703 373.354 77.8314C370.783 78.96 368.806 80.7466 367.423 83.1916C366.136 85.6366 365.495 88.7399 365.495 92.5013V135.947H346.51V60.6226ZM264.419 77.5377C261.132 83.5065 259.488 90.4229 259.488 98.2863C259.488 106.15 261.132 113.066 264.419 119.035C267.706 125.004 272.289 129.599 278.165 132.82C284.042 136.042 290.914 137.652 298.784 137.652C307.351 137.652 314.922 135.521 321.496 131.257C328.069 126.994 332.553 121.309 334.943 114.203L315.37 112.782C313.874 116.003 311.634 118.562 308.646 120.456C305.658 122.351 302.371 123.299 298.784 123.299C293.107 123.299 288.574 121.546 285.188 118.041C281.901 114.44 280.058 109.514 279.659 103.26H335.988V98.855C335.889 90.2333 334.197 82.938 330.909 76.9692C327.622 71.0004 323.189 66.5 317.61 63.4682C312.032 60.4364 305.756 58.9206 298.784 58.9206C290.914 58.9206 284.042 60.5312 278.165 63.7525C272.289 66.9737 267.706 71.5689 264.419 77.5377ZM310.439 77.6798C313.626 80.5221 315.569 85.0223 316.266 91.1806H279.808C280.606 85.4962 282.647 81.0905 285.934 77.964C289.221 74.8374 293.505 73.2742 298.784 73.2742C303.367 73.2742 307.25 74.7428 310.439 77.6798Z" fill="#171717"></path>
</svg>
